HIERARCHY
ROOT ROOT
{
	OFFSET 0.000000 56.020000 -5.659234
	CHANNELS 6 Xposition Yposition Zposition Xrotation Yrotation Zrotation 
	JOINT C_spine0001_bind_JNT
	{
		OFFSET 0.000000 1.618999 0.000000
		CHANNELS 3 Xrotation Yrotation Zrotation
		JOINT C_spine0002_bind_JNT
		{
			OFFSET 0.000000 4.942001 0.000001
			CHANNELS 3 Xrotation Yrotation Zrotation
			JOINT C_spine0003_bind_JNT
			{
				OFFSET 0.000000 4.942001 -0.000000
				CHANNELS 3 Xrotation Yrotation Zrotation
				JOINT C_neck0001_bind_JNT
				{
					OFFSET 0.000000 17.026009 -0.000000
					CHANNELS 3 Xrotation Yrotation Zrotation
					JOINT C_neck0002_bind_JNT
					{
						OFFSET 0.000000 3.249985 0.000000
						CHANNELS 3 Xrotation Yrotation Zrotation
						JOINT C_head_bind_JNT
						{
							OFFSET 0.000000 5.278008 0.000000
							CHANNELS 3 Xrotation Yrotation Zrotation
							End Site
							{
								OFFSET 0.000000 0.000000 0.000000
							}
						}
					}
				}
				JOINT L_clavicle_bind_JNT
				{
					OFFSET 4.590000 12.067001 0.834000
					CHANNELS 3 Xrotation Yrotation Zrotation
					JOINT L_armUpper0001_bind_JNT
					{
						OFFSET 7.812635 0.512001 -3.452945
						CHANNELS 3 Xrotation Yrotation Zrotation
						JOINT L_armLower0001_bind_JNT
						{
							OFFSET 15.265892 -6.552116 -0.058157
							CHANNELS 3 Xrotation Yrotation Zrotation
							JOINT L_hand0001_bind_JNT
							{
								OFFSET 14.747667 -6.369995 5.049225
								CHANNELS 3 Xrotation Yrotation Zrotation
								End Site
								{
									OFFSET 0.000000 0.000000 0.000000
								}
							}
						}
					}
				}
				JOINT R_clavicle_bind_JNT
				{
					OFFSET -4.590000 12.067001 0.834000
					CHANNELS 3 Xrotation Yrotation Zrotation
					JOINT R_armUpper0001_bind_JNT
					{
						OFFSET -7.812635 0.512001 -3.452945
						CHANNELS 3 Xrotation Yrotation Zrotation
						JOINT R_armLower0001_bind_JNT
						{
							OFFSET -15.265890 -6.552124 -0.058160
							CHANNELS 3 Xrotation Yrotation Zrotation
							JOINT R_hand0001_bind_JNT
							{
								OFFSET -14.746784 -6.369629 5.048937
								CHANNELS 3 Xrotation Yrotation Zrotation
								End Site
								{
									OFFSET 0.000000 0.000000 0.000000
								}
							}
						}
					}
				}
			}
		}
	}
	JOINT C_pelvis0001_bind_JNT
	{
		OFFSET -0.000000 0.000000 0.000000
		CHANNELS 3 Xrotation Yrotation Zrotation
		JOINT L_legUpper0001_bind_JNT
		{
			OFFSET 6.599999 -6.027000 0.539000
			CHANNELS 3 Xrotation Yrotation Zrotation
			JOINT L_legLower0001_bind_JNT
			{
				OFFSET -0.140713 -19.187443 0.040261
				CHANNELS 3 Xrotation Yrotation Zrotation
				JOINT L_foot0001_bind_JNT
				{
					OFFSET -0.132215 -18.028637 -1.138370
					CHANNELS 3 Xrotation Yrotation Zrotation
					JOINT L_foot0002_bind_JNT
					{
						OFFSET 0.007014 -4.693133 9.886524
						CHANNELS 3 Xrotation Yrotation Zrotation
						End Site
						{
							OFFSET 0.000000 0.000000 0.000000
						}
					}
				}
			}
		}
		JOINT R_legUpper0001_bind_JNT
		{
			OFFSET -6.599999 -6.027000 0.539000
			CHANNELS 3 Xrotation Yrotation Zrotation
			JOINT R_legLower0001_bind_JNT
			{
				OFFSET 0.140710 -19.187164 0.040550
				CHANNELS 3 Xrotation Yrotation Zrotation
				JOINT R_foot0001_bind_JNT
				{
					OFFSET 0.132215 -18.028633 -1.138362
					CHANNELS 3 Xrotation Yrotation Zrotation
					JOINT R_foot0002_bind_JNT
					{
						OFFSET -0.007014 -4.693128 9.886505
						CHANNELS 3 Xrotation Yrotation Zrotation
						End Site
						{
							OFFSET 0.000000 0.000000 0.000000
						}
					}
				}
			}
		}
	}
}
MOTION
Frames: 13
Frame Time: 0.033333
0.000000 49.926079 0.000000 0.036579 -55.532570 0.021770 -3.754764 57.439259 1.710624 7.501894 -2.393341 2.964046 3.269615 -2.436746 1.564918 5.114506 -0.266259 -0.416765 1.952565 -4.019418 -0.224579 30.621311 -2.357910 -1.453585 0.003755 16.834665 -3.938977 -4.206721 -3.545624 -60.221394 6.043269 9.236727 -8.072181 -3.386583 -27.289392 -20.694887 -1.879373 -10.756921 1.850734 -4.035958 -2.959132 59.187096 13.738046 0.811223 -0.063041 5.292660 27.971693 22.623346 2.282198 57.244732 -3.823630 -5.045153 -0.803811 0.586370 13.916564 2.823499 -1.211110 -6.818228 -6.072587 -1.093418 -2.552837 0.025165 0.338574 -1.098315 -1.071019 -0.069393 4.475396 -3.391463 -0.243950 -0.770704 -3.336977 2.196647 -2.452593 0.405897 0.204408 
0.323612 49.884075 -0.092117 0.019638 -55.183006 -0.009068 -3.932144 57.475021 0.702802 7.435968 -2.569654 3.761061 3.980563 -2.373572 1.639434 4.042552 -0.063395 -0.416484 2.179384 -4.801438 0.009641 31.967411 -2.056479 -1.832042 0.096614 16.364998 -4.756442 -3.870556 -3.571285 -59.271305 4.602715 8.539408 -9.173563 -4.655298 -27.696096 -20.417515 -2.227441 -10.798524 2.306963 -3.737603 -3.102752 58.631790 13.114592 2.004273 0.551271 6.634402 28.974491 21.985912 2.070375 57.492424 -4.066364 -6.725947 -0.099540 0.295368 17.371767 1.852734 -0.834309 -8.146950 -5.292465 -0.388971 -2.410794 -0.175714 0.591946 -1.568026 -0.105515 -0.040322 5.354923 -4.796097 -0.197932 -1.247162 -2.306617 2.728132 -1.890031 0.432658 -0.092447 
0.504953 49.766819 -0.046671 0.000398 -54.998569 -0.031301 -3.925511 57.694893 0.669255 7.498564 -2.751673 4.032838 4.068283 -2.429538 1.666259 4.359571 -0.045439 -0.581200 2.158069 -5.410703 0.345112 33.129795 -2.285830 -2.026987 -0.131580 16.850214 -4.431777 -3.741456 -3.338046 -59.465565 5.466359 8.761239 -9.212704 -4.226123 -28.195742 -20.354565 -2.059712 -11.314731 2.523386 -4.018293 -1.998794 58.280811 12.742737 1.933714 0.597783 7.109315 28.600822 21.834778 2.045830 57.744480 -4.092138 -6.918947 -0.080680 -0.043078 18.148943 1.371977 -1.061695 -8.441056 -5.730208 0.128085 -2.491216 -0.461707 0.919006 -1.615356 -0.176509 0.083757 5.726376 -4.720132 -0.024642 -1.197680 -2.335172 2.757628 -2.145474 0.724695 -0.378432 
0.498088 49.768684 -0.033904 -0.002131 -54.749699 -0.025272 -3.852273 57.431347 0.571942 7.460170 -2.630469 4.034742 4.130670 -2.432543 1.699472 4.305424 0.039495 -0.715316 2.155261 -5.767927 0.290103 33.336910 -2.065196 -2.047329 -0.159262 17.005314 -4.231739 -3.661635 -2.946156 -59.752377 5.741804 8.975298 -8.925756 -4.298688 -28.206766 -20.358353 -1.898414 -11.347510 2.393984 -4.092244 -1.986239 57.811470 12.686970 1.981664 1.174848 7.408468 29.122299 21.775671 2.154181 57.685261 -4.316400 -7.118479 -0.091523 0.085458 18.567221 1.293477 -1.134857 -8.578826 -5.754070 0.112321 -2.421750 -0.386158 1.023331 -2.169702 0.033766 0.320327 6.477670 -5.087391 0.047704 -1.436374 -2.121262 2.595663 -2.112237 0.567912 -0.255330 
0.670294 49.723907 -0.006093 0.009877 -55.191109 -0.023470 -4.182612 58.069206 0.623620 7.850669 -2.696046 4.254456 4.010859 -2.487274 1.767600 4.502031 0.005482 -1.027211 2.180038 -5.857778 0.458560 33.833603 -2.194126 -2.147533 -0.146886 17.270437 -4.289846 -3.040736 -2.672320 -59.267159 5.881531 8.843246 -8.908360 -4.140896 -28.123831 -20.216452 -1.655157 -11.368748 2.191984 -4.328036 -2.275048 57.757355 12.778242 1.895947 1.334020 8.041080 29.359245 21.651968 2.156876 58.077831 -4.439743 -7.481254 0.476174 -0.285264 18.923285 1.015548 -1.017285 -8.588140 -6.223150 0.591996 -2.436842 -0.547305 0.768798 -2.204253 0.114921 0.308652 6.828564 -4.926501 0.265762 -1.593795 -2.226101 2.682267 -2.240864 0.505845 -0.333650 
0.815144 49.665810 0.092696 -0.002930 -55.095161 -0.030765 -3.819688 58.102730 0.274192 7.463019 -2.781533 4.323285 4.026046 -2.590798 1.776319 4.593848 0.010042 -0.941648 2.322699 -6.059647 0.467507 33.897530 -2.295761 -1.954572 0.093659 17.530245 -3.916889 -2.897252 -2.363922 -59.276798 6.047328 8.735696 -8.821519 -3.817596 -28.002031 -19.987337 -1.405153 -11.502361 2.309386 -4.118338 -2.576606 57.574039 12.910112 1.929860 1.053378 8.099446 29.536118 21.965376 1.851299 58.103638 -4.307421 -7.202583 0.502754 -0.382871 19.314734 0.934452 -1.028495 -8.811831 -6.128098 0.738522 -2.643879 -0.558972 0.967638 -2.379350 0.233055 0.477620 7.743474 -4.997973 0.291095 -1.992720 -2.223366 2.715994 -2.401242 0.456393 -0.306447 
0.993473 49.647961 0.160778 0.005819 -55.187099 -0.028799 -3.962358 58.204773 0.143596 7.453343 -2.886987 4.536688 4.164405 -2.621294 2.021528 4.549205 0.042593 -1.223438 2.224986 -6.146069 0.628175 33.783699 -1.975110 -1.891833 0.320436 17.576576 -4.153719 -2.890105 -1.787611 -58.877777 5.771917 8.954466 -8.350941 -3.335989 -28.073889 -19.742975 -1.066726 -11.517768 2.302903 -4.258564 -3.068910 57.493511 13.052443 1.723748 0.841346 8.420885 29.954630 21.743441 1.748902 58.246655 -4.250820 -6.969259 0.493184 -0.602395 19.197081 0.960937 -0.863673 -8.885055 -6.267456 0.901177 -2.631247 -0.580543 0.825258 -2.796901 0.094029 0.178313 8.661481 -5.188886 0.329079 -2.454440 -2.070417 2.917293 -2.347033 0.365956 -0.324119 
1.202065 49.617439 0.196043 0.001177 -55.072025 -0.028269 -3.885632 58.222874 -0.064713 7.524596 -2.967142 4.758577 4.191767 -2.757991 2.114262 4.356924 -0.006333 -1.129530 2.233291 -6.282800 0.530575 33.891399 -1.894176 -2.027747 0.154201 17.854181 -4.369780 -2.511695 -1.470678 -58.533714 5.566571 9.574834 -7.824983 -2.517550 -28.167286 -19.298262 -1.152349 -11.544189 2.270969 -3.862193 -3.527297 57.576458 12.664783 1.204433 0.529249 8.791469 30.227724 21.317307 1.470073 58.106861 -3.927242 -6.637452 0.551127 -1.130630 19.151588 0.984173 -0.518688 -8.984011 -6.348797 1.015872 -2.489372 -0.531778 0.804399 -2.721962 0.271585 -0.183125 9.083487 -5.557863 0.576889 -2.729211 -2.106873 2.961666 -2.346850 0.529666 -0.328742 
1.433196 49.586311 0.154834 -0.002148 -54.777138 -0.028379 -3.610904 58.062767 -0.454626 7.484958 -3.085094 4.806864 4.209304 -2.771214 2.270227 4.014833 0.062314 -1.286480 2.341029 -6.627425 0.708311 34.239292 -1.883135 -1.914683 0.183602 17.783054 -4.383043 -2.444533 -1.038236 -58.161045 5.024027 10.133248 -7.416515 -2.060450 -28.202202 -19.177813 -1.156189 -11.568512 2.365220 -3.471492 -4.274010 57.238274 12.313254 1.363696 0.253673 8.569040 30.203072 21.687582 1.518903 58.006172 -4.159925 -6.438238 0.224353 -1.297413 19.383970 0.875213 -0.359087 -9.579036 -6.161705 1.142470 -2.539251 -0.555615 0.864574 -3.113374 0.133272 -0.316544 9.339763 -5.613206 0.750959 -2.747520 -2.057222 3.112650 -2.247693 0.533840 -0.326919 
1.619449 49.583611 0.003584 -0.001455 -54.829216 -0.026909 -3.428561 58.161503 -0.754007 7.525226 -3.000695 5.041685 4.195194 -2.810504 2.247619 3.969186 0.105996 -1.213510 2.281814 -6.694226 0.636413 34.191673 -1.879550 -1.997604 -0.095663 17.802380 -4.219603 -2.219258 -0.398572 -57.895439 4.834848 10.483399 -7.131389 -1.889401 -28.098644 -19.121721 -1.020979 -11.736241 2.529469 -3.423884 -4.190715 57.211090 11.668558 0.934979 0.077137 8.856574 30.635693 21.369850 1.787005 58.060108 -4.416752 -6.663379 0.112459 -1.331104 19.551949 0.859939 -0.417800 -9.805725 -6.303113 1.174633 -2.442302 -0.526475 0.887300 -3.369163 0.003860 -0.343828 8.937943 -5.310273 0.538211 -2.394757 -2.327079 3.291066 -2.165728 0.791249 -0.316916 
1.859312 49.537724 -0.347690 0.010698 -55.312820 -0.009925 -3.420782 58.910282 -0.745816 7.740859 -3.172432 5.075522 4.342908 -2.944083 2.372033 3.697613 0.193956 -1.308590 2.424718 -6.692044 0.802067 34.365608 -1.852651 -1.889372 -0.364695 17.824129 -4.353769 -2.147489 0.121712 -57.328403 4.912337 10.597184 -7.079057 -2.082768 -27.912823 -18.998148 -1.013341 -11.830169 2.720512 -3.645036 -4.406600 56.883518 11.436704 0.801077 -0.164806 9.286984 30.847143 21.357954 1.632134 58.670769 -4.429889 -7.141092 0.165128 -1.724738 19.976793 0.472937 -0.075314 -9.801678 -6.086826 1.474447 -2.276378 -0.386025 0.785614 -3.648221 -0.229938 -0.541260 8.503608 -5.341684 0.425228 -1.829538 -1.947848 3.799727 -1.990798 0.617226 -0.377357 
2.131458 49.498276 -0.605126 0.007639 -55.685902 -0.029428 -3.208894 59.310757 -1.010668 8.042655 -3.214744 5.270234 4.326530 -2.938896 2.375198 3.777872 0.101496 -1.193017 2.310528 -6.713920 0.768720 34.311783 -1.827106 -1.907482 -0.754194 17.733240 -4.145062 -1.996881 0.653099 -56.995228 4.940561 10.811497 -7.356984 -1.978090 -27.848614 -18.498743 -1.045111 -12.001598 2.799187 -3.900605 -4.410126 56.785553 10.837587 0.417704 -0.439199 9.728552 30.749022 21.105539 2.064164 59.109184 -4.768675 -7.999930 0.182778 -2.121693 20.501146 0.328105 -0.116207 -9.949120 -6.238249 1.887630 -2.085617 -0.283213 0.834914 -4.204562 -0.141994 -0.938566 8.345985 -5.530412 0.422646 -1.338172 -1.711582 4.158220 -1.932115 0.778095 -0.415592 
2.427770 49.453846 -0.769694 0.017828 -55.577606 -0.013704 -2.994936 59.282383 -1.361691 8.084793 -3.260548 5.410230 4.452145 -3.055576 2.439611 3.935725 0.112544 -1.304604 2.237800 -6.612798 0.918485 34.226036 -1.820665 -1.769311 -0.964325 17.796061 -4.078499 -1.689957 1.008966 -56.452450 5.111013 10.690403 -7.344525 -2.403020 -27.654358 -18.713146 -0.916357 -12.360711 2.854160 -4.050364 -4.259495 56.470345 10.602163 0.421597 -0.783456 9.877894 30.529741 20.831360 2.284079 59.082798 -5.051992 -8.751755 0.325671 -2.361542 21.413813 0.025249 -0.050460 -10.145660 -5.985146 2.213006 -2.130187 -0.473540 0.864416 -5.170156 -0.115096 -1.624217 9.709106 -5.116687 0.880019 -1.607170 -1.666024 4.515710 -1.912864 0.705762 -0.571997 
